<svg width="36" height="11" viewBox="0 0 36 11" fill="none" xmlns="http://www.w3.org/2000/svg">
<path d="M10.8684 5.43384C10.8684 8.43488 8.43557 10.8677 5.43453 10.8677C2.43349 10.8677 0.000664609 8.43488 0.000664609 5.43384C0.000664609 2.4328 2.43349 -2.08905e-05 5.43453 -2.08905e-05C8.43557 -2.08905e-05 10.8684 2.4328 10.8684 5.43384ZM36 5.43384V6.45269H34.4717V5.43384V4.41499H36V5.43384ZM31.4152 5.43384V6.45269H28.3586V5.43384V4.41499H31.4152V5.43384ZM25.3021 5.43384V6.45269H22.2455V5.43384V4.41499H25.3021V5.43384ZM19.189 5.43384V6.45269H16.1324V5.43384V4.41499H19.189V5.43384ZM13.0759 5.43384V6.45269H10.0193V5.43384V4.41499H13.0759V5.43384ZM6.9628 5.43384V6.45269H5.43453V5.43384V4.41499H6.9628V5.43384Z" fill="#EFBDC0"/>
</svg>
