<svg width="362" height="1605" viewBox="0 0 362 1605" fill="none" xmlns="http://www.w3.org/2000/svg">
<path d="M10.1618 15.0019L17.3229 0H0.000191713L7.16137 15.0019H10.1618ZM15.7128 1586.88L1.44682 1595.42L15.8761 1605L18.212 1588.54L15.7128 1586.88ZM354.942 1078.92L353.693 1078.09L354.942 1078.92ZM20.5576 1003.16L19.3609 1002.25L20.5576 1003.16ZM355.937 559.49L354.74 558.585L355.937 559.49ZM13.0029 1596.38C13.4613 1595.69 13.2735 1594.76 12.5834 1594.3C11.8932 1593.85 10.9621 1594.03 10.5036 1594.72L13.0029 1596.38ZM16.6872 1585.41C16.2288 1586.1 16.4166 1587.04 17.1068 1587.49C17.7969 1587.95 18.728 1587.76 19.1865 1587.07L16.6872 1585.41ZM25.3701 1577.77C25.8285 1577.08 25.6407 1576.14 24.9505 1575.69C24.2604 1575.23 23.3293 1575.42 22.8708 1576.11L25.3701 1577.77ZM29.0544 1566.8C28.596 1567.49 28.7838 1568.42 29.4739 1568.88C30.1641 1569.34 31.0952 1569.15 31.5536 1568.46L29.0544 1566.8ZM37.7372 1559.15C38.1957 1558.46 38.0079 1557.53 37.3177 1557.07C36.6276 1556.61 35.6965 1556.8 35.238 1557.49L37.7372 1559.15ZM41.4216 1548.18C40.9631 1548.87 41.151 1549.8 41.8411 1550.26C42.5313 1550.72 43.4624 1550.53 43.9208 1549.84L41.4216 1548.18ZM50.1044 1540.53C50.5629 1539.84 50.375 1538.91 49.6849 1538.45C48.9947 1537.99 48.0636 1538.18 47.6052 1538.87L50.1044 1540.53ZM53.7888 1529.56C53.3303 1530.25 53.5181 1531.18 54.2083 1531.64C54.8984 1532.1 55.8296 1531.91 56.288 1531.22L53.7888 1529.56ZM62.4716 1521.91C62.93 1521.22 62.7422 1520.29 62.0521 1519.83C61.3619 1519.38 60.4308 1519.56 59.9724 1520.25L62.4716 1521.91ZM66.1559 1510.94C65.6975 1511.63 65.8853 1512.57 66.5755 1513.02C67.2656 1513.48 68.1967 1513.29 68.6552 1512.6L66.1559 1510.94ZM74.8388 1503.3C75.2972 1502.61 75.1094 1501.67 74.4192 1501.22C73.7291 1500.76 72.798 1500.95 72.3395 1501.64L74.8388 1503.3ZM78.5231 1492.33C78.0647 1493.02 78.2525 1493.95 78.9427 1494.41C79.6328 1494.87 80.5639 1494.68 81.0224 1493.99L78.5231 1492.33ZM87.2059 1484.68C87.6644 1483.99 87.4766 1483.06 86.7864 1482.6C86.0963 1482.14 85.1652 1482.33 84.7067 1483.02L87.2059 1484.68ZM90.8903 1473.71C90.4319 1474.4 90.6197 1475.33 91.3098 1475.79C92 1476.25 92.9311 1476.06 93.3895 1475.37L90.8903 1473.71ZM99.5731 1466.06C100.032 1465.37 99.8437 1464.44 99.1536 1463.98C98.4635 1463.52 97.5323 1463.71 97.0739 1464.4L99.5731 1466.06ZM103.257 1455.09C102.799 1455.78 102.987 1456.71 103.677 1457.17C104.367 1457.63 105.298 1457.44 105.757 1456.75L103.257 1455.09ZM111.94 1447.44C112.399 1446.75 112.211 1445.82 111.521 1445.36C110.831 1444.91 109.9 1445.09 109.441 1445.78L111.94 1447.44ZM115.625 1436.47C115.166 1437.17 115.354 1438.1 116.044 1438.55C116.734 1439.01 117.665 1438.83 118.124 1438.14L115.625 1436.47ZM124.307 1428.83C124.766 1428.14 124.578 1427.21 123.888 1426.75C123.198 1426.29 122.267 1426.48 121.808 1427.17L124.307 1428.83ZM127.992 1417.86C127.533 1418.55 127.721 1419.48 128.411 1419.94C129.102 1420.4 130.033 1420.21 130.491 1419.52L127.992 1417.86ZM136.675 1410.21C137.133 1409.52 136.945 1408.59 136.255 1408.13C135.565 1407.67 134.634 1407.86 134.175 1408.55L136.675 1410.21ZM140.359 1399.24C139.901 1399.93 140.088 1400.86 140.779 1401.32C141.469 1401.78 142.4 1401.59 142.858 1400.9L140.359 1399.24ZM149.042 1391.59C149.5 1390.9 149.312 1389.97 148.622 1389.51C147.932 1389.05 147.001 1389.24 146.543 1389.93L149.042 1391.59ZM152.726 1380.62C152.268 1381.31 152.456 1382.24 153.146 1382.7C153.836 1383.16 154.767 1382.97 155.225 1382.28L152.726 1380.62ZM161.409 1372.97C161.867 1372.28 161.68 1371.35 160.989 1370.89C160.299 1370.44 159.368 1370.62 158.91 1371.31L161.409 1372.97ZM165.093 1362.01C164.635 1362.7 164.823 1363.63 165.513 1364.08C166.203 1364.54 167.134 1364.36 167.593 1363.67L165.093 1362.01ZM173.776 1354.36C174.235 1353.67 174.047 1352.74 173.357 1352.28C172.667 1351.82 171.735 1352.01 171.277 1352.7L173.776 1354.36ZM177.461 1343.39C177.002 1344.08 177.19 1345.01 177.88 1345.47C178.57 1345.93 179.501 1345.74 179.96 1345.05L177.461 1343.39ZM186.143 1335.74C186.602 1335.05 186.414 1334.12 185.724 1333.66C185.034 1333.2 184.103 1333.39 183.644 1334.08L186.143 1335.74ZM189.828 1324.77C189.369 1325.46 189.557 1326.39 190.247 1326.85C190.937 1327.31 191.869 1327.12 192.327 1326.43L189.828 1324.77ZM198.511 1317.12C198.969 1316.43 198.781 1315.5 198.091 1315.04C197.401 1314.58 196.47 1314.77 196.011 1315.46L198.511 1317.12ZM202.195 1306.15C201.736 1306.84 201.924 1307.77 202.614 1308.23C203.305 1308.69 204.236 1308.5 204.694 1307.81L202.195 1306.15ZM210.878 1298.5C211.336 1297.81 211.148 1296.88 210.458 1296.42C209.768 1295.97 208.837 1296.15 208.379 1296.84L210.878 1298.5ZM214.562 1287.54C214.104 1288.23 214.291 1289.16 214.982 1289.62C215.672 1290.07 216.603 1289.89 217.061 1289.2L214.562 1287.54ZM223.245 1279.89C223.703 1279.2 223.516 1278.27 222.825 1277.81C222.135 1277.35 221.204 1277.54 220.746 1278.23L223.245 1279.89ZM226.929 1268.92C226.471 1269.61 226.659 1270.54 227.349 1271C228.039 1271.46 228.97 1271.27 229.428 1270.58L226.929 1268.92ZM235.612 1261.27C236.071 1260.58 235.883 1259.65 235.193 1259.19C234.502 1258.73 233.571 1258.92 233.113 1259.61L235.612 1261.27ZM239.296 1250.3C238.838 1250.99 239.026 1251.92 239.716 1252.38C240.406 1252.84 241.337 1252.65 241.796 1251.96L239.296 1250.3ZM247.979 1242.65C248.438 1241.96 248.25 1241.03 247.56 1240.57C246.87 1240.11 245.938 1240.3 245.48 1240.99L247.979 1242.65ZM251.664 1231.68C251.205 1232.37 251.393 1233.3 252.083 1233.76C252.773 1234.22 253.704 1234.03 254.163 1233.34L251.664 1231.68ZM260.346 1224.03C260.805 1223.34 260.617 1222.41 259.927 1221.96C259.237 1221.5 258.306 1221.68 257.847 1222.37L260.346 1224.03ZM264.031 1213.07C263.572 1213.76 263.76 1214.69 264.45 1215.15C265.14 1215.6 266.072 1215.42 266.53 1214.73L264.031 1213.07ZM272.714 1205.42C273.172 1204.73 272.984 1203.8 272.294 1203.34C271.604 1202.88 270.673 1203.07 270.214 1203.76L272.714 1205.42ZM276.398 1194.45C275.94 1195.14 276.127 1196.07 276.818 1196.53C277.508 1196.99 278.439 1196.8 278.897 1196.11L276.398 1194.45ZM285.081 1186.8C285.539 1186.11 285.351 1185.18 284.661 1184.72C283.971 1184.26 283.04 1184.45 282.582 1185.14L285.081 1186.8ZM288.765 1175.83C288.307 1176.52 288.495 1177.45 289.185 1177.91C289.875 1178.37 290.806 1178.18 291.264 1177.49L288.765 1175.83ZM297.448 1168.18C297.906 1167.49 297.719 1166.56 297.028 1166.1C296.338 1165.64 295.407 1165.83 294.949 1166.52L297.448 1168.18ZM301.132 1157.21C300.674 1157.9 300.862 1158.83 301.552 1159.29C302.242 1159.75 303.173 1159.56 303.632 1158.87L301.132 1157.21ZM309.815 1149.57C310.274 1148.87 310.086 1147.94 309.396 1147.49C308.706 1147.03 307.774 1147.21 307.316 1147.9L309.815 1149.57ZM313.5 1138.6C313.041 1139.29 313.229 1140.22 313.919 1140.68C314.609 1141.13 315.54 1140.95 315.999 1140.26L313.5 1138.6ZM322.182 1130.95C322.641 1130.26 322.453 1129.33 321.763 1128.87C321.073 1128.41 320.142 1128.6 319.683 1129.29L322.182 1130.95ZM325.867 1119.98C325.408 1120.67 325.596 1121.6 326.286 1122.06C326.976 1122.52 327.908 1122.33 328.366 1121.64L325.867 1119.98ZM334.55 1112.33C335.008 1111.64 334.82 1110.71 334.13 1110.25C333.44 1109.79 332.509 1109.98 332.05 1110.67L334.55 1112.33ZM338.234 1101.36C337.776 1102.05 337.963 1102.98 338.654 1103.44C339.344 1103.9 340.275 1103.71 340.733 1103.02L338.234 1101.36ZM346.917 1093.71C347.375 1093.02 347.187 1092.09 346.497 1091.63C345.807 1091.17 344.876 1091.36 344.418 1092.05L346.917 1093.71ZM350.601 1082.74C350.143 1083.43 350.331 1084.36 351.021 1084.82C351.711 1085.28 352.642 1085.09 353.1 1084.4L350.601 1082.74ZM359.211 1073.59C359.473 1072.81 359.049 1071.96 358.263 1071.69C357.477 1071.43 356.627 1071.86 356.365 1072.64L359.211 1073.59ZM356.916 1060.68C357.102 1061.48 357.908 1061.99 358.715 1061.8C359.523 1061.61 360.026 1060.81 359.839 1060L356.916 1060.68ZM353.416 1048.02C352.847 1047.42 351.897 1047.4 351.295 1047.96C350.693 1048.53 350.667 1049.48 351.236 1050.09L353.416 1048.02ZM340.964 1043.92C341.763 1044.14 342.587 1043.67 342.804 1042.87C343.02 1042.07 342.548 1041.24 341.748 1041.03L340.964 1043.92ZM329.271 1040.13C328.442 1040.13 327.771 1040.81 327.771 1041.64C327.771 1042.46 328.442 1043.14 329.271 1043.14V1040.13ZM317.915 1043.14C318.744 1043.14 319.416 1042.46 319.416 1041.64C319.416 1040.81 318.744 1040.13 317.915 1040.13V1043.14ZM306.56 1040.13C305.731 1040.13 305.06 1040.81 305.06 1041.64C305.06 1042.46 305.731 1043.14 306.56 1043.14V1040.13ZM295.204 1043.14C296.033 1043.14 296.705 1042.46 296.705 1041.64C296.705 1040.81 296.033 1040.13 295.204 1040.13V1043.14ZM283.849 1040.13C283.02 1040.13 282.349 1040.81 282.349 1041.64C282.349 1042.46 283.02 1043.14 283.849 1043.14V1040.13ZM272.493 1043.14C273.322 1043.14 273.994 1042.46 273.994 1041.64C273.994 1040.81 273.322 1040.13 272.493 1040.13V1043.14ZM261.138 1040.13C260.309 1040.13 259.638 1040.81 259.638 1041.64C259.638 1042.46 260.309 1043.14 261.138 1043.14V1040.13ZM249.782 1043.14C250.611 1043.14 251.283 1042.46 251.283 1041.64C251.283 1040.81 250.611 1040.13 249.782 1040.13V1043.14ZM238.427 1040.13C237.598 1040.13 236.927 1040.81 236.927 1041.64C236.927 1042.46 237.598 1043.14 238.427 1043.14V1040.13ZM227.071 1043.14C227.9 1043.14 228.572 1042.46 228.572 1041.64C228.572 1040.81 227.9 1040.13 227.071 1040.13V1043.14ZM215.716 1040.13C214.887 1040.13 214.216 1040.81 214.216 1041.64C214.216 1042.46 214.887 1043.14 215.716 1043.14V1040.13ZM204.36 1043.14C205.189 1043.14 205.86 1042.46 205.86 1041.64C205.86 1040.81 205.189 1040.13 204.36 1040.13V1043.14ZM193.005 1040.13C192.176 1040.13 191.505 1040.81 191.505 1041.64C191.505 1042.46 192.176 1043.14 193.005 1043.14V1040.13ZM181.649 1043.14C182.478 1043.14 183.149 1042.46 183.149 1041.64C183.149 1040.81 182.478 1040.13 181.649 1040.13V1043.14ZM170.294 1040.13C169.465 1040.13 168.794 1040.81 168.794 1041.64C168.794 1042.46 169.465 1043.14 170.294 1043.14V1040.13ZM158.938 1043.14C159.767 1043.14 160.438 1042.46 160.438 1041.64C160.438 1040.81 159.767 1040.13 158.938 1040.13V1043.14ZM147.583 1040.13C146.754 1040.13 146.083 1040.81 146.083 1041.64C146.083 1042.46 146.754 1043.14 147.583 1043.14V1040.13ZM136.227 1043.14C137.056 1043.14 137.727 1042.46 137.727 1041.64C137.727 1040.81 137.056 1040.13 136.227 1040.13V1043.14ZM124.872 1040.13C124.043 1040.13 123.372 1040.81 123.372 1041.64C123.372 1042.46 124.043 1043.14 124.872 1043.14V1040.13ZM113.516 1043.14C114.345 1043.14 115.016 1042.46 115.016 1041.64C115.016 1040.81 114.345 1040.13 113.516 1040.13V1043.14ZM102.161 1040.13C101.332 1040.13 100.661 1040.81 100.661 1041.64C100.661 1042.46 101.332 1043.14 102.161 1043.14V1040.13ZM90.8052 1043.14C91.6338 1043.14 92.3054 1042.46 92.3054 1041.64C92.3054 1040.81 91.6338 1040.13 90.8052 1040.13V1043.14ZM79.4497 1040.13C78.6212 1040.13 77.9495 1040.81 77.9495 1041.64C77.9495 1042.46 78.6212 1043.14 79.4497 1043.14V1040.13ZM68.0942 1043.14C68.9228 1043.14 69.5944 1042.46 69.5944 1041.64C69.5944 1040.81 68.9228 1040.13 68.0942 1040.13V1043.14ZM56.7387 1040.13C55.9102 1040.13 55.2385 1040.81 55.2385 1041.64C55.2385 1042.46 55.9102 1043.14 56.7387 1043.14V1040.13ZM45.3832 1043.14C46.2117 1043.14 46.8834 1042.46 46.8834 1041.64C46.8834 1040.81 46.2117 1040.13 45.3832 1040.13V1043.14ZM33.5217 1039.31C32.7235 1039.08 31.8964 1039.55 31.6744 1040.35C31.4523 1041.15 31.9194 1041.97 32.7176 1042.2L33.5217 1039.31ZM20.8381 1034.82C21.3931 1035.44 22.3417 1035.49 22.9569 1034.93C23.5721 1034.38 23.621 1033.43 23.0661 1032.81L20.8381 1034.82ZM17.5618 1021.75C17.4056 1020.94 16.6194 1020.4 15.8057 1020.56C14.992 1020.72 14.459 1021.5 14.6151 1022.32L17.5618 1021.75ZM15.8962 1008.39C15.592 1009.16 15.9702 1010.04 16.7408 1010.34C17.5115 1010.64 18.3828 1010.27 18.6871 1009.5L15.8962 1008.39ZM25.1081 999.626C25.6078 998.965 25.477 998.024 24.816 997.524C24.1551 997.025 23.2143 997.155 22.7146 997.816L25.1081 999.626ZM29.4222 988.943C28.9226 989.604 29.0534 990.545 29.7143 991.044C30.3753 991.544 31.3161 991.413 31.8157 990.752L29.4222 988.943ZM38.5233 981.879C39.0229 981.218 38.8921 980.277 38.2312 979.778C37.5703 979.278 36.6294 979.409 36.1298 980.07L38.5233 981.879ZM42.8374 971.196C42.3378 971.857 42.4685 972.798 43.1295 973.298C43.7904 973.797 44.7312 973.666 45.2309 973.006L42.8374 971.196ZM51.9385 964.132C52.4381 963.471 52.3073 962.53 51.6464 962.031C50.9854 961.531 50.0446 961.662 49.545 962.323L51.9385 964.132ZM56.2525 953.45C55.7529 954.11 55.8837 955.051 56.5446 955.551C57.2056 956.051 58.1464 955.92 58.646 955.259L56.2525 953.45ZM65.3536 946.385C65.8532 945.725 65.7225 944.784 65.0615 944.284C64.4006 943.784 63.4597 943.915 62.9601 944.576L65.3536 946.385ZM69.6677 935.703C69.1681 936.364 69.2988 937.305 69.9598 937.804C70.6207 938.304 71.5616 938.173 72.0612 937.512L69.6677 935.703ZM78.7688 928.639C79.2684 927.978 79.1376 927.037 78.4767 926.537C77.8157 926.038 76.8749 926.169 76.3753 926.829L78.7688 928.639ZM83.0829 917.956C82.5832 918.617 82.714 919.558 83.375 920.058C84.0359 920.557 84.9767 920.426 85.4763 919.765L83.0829 917.956ZM92.1839 910.892C92.6836 910.231 92.5528 909.29 91.8918 908.791C91.2309 908.291 90.2901 908.422 89.7904 909.083L92.1839 910.892ZM96.498 900.209C95.9984 900.87 96.1292 901.811 96.7901 902.311C97.4511 902.81 98.3919 902.68 98.8915 902.019L96.498 900.209ZM105.599 893.145C106.099 892.484 105.968 891.544 105.307 891.044C104.646 890.544 103.705 890.675 103.206 891.336L105.599 893.145ZM109.913 882.463C109.414 883.124 109.544 884.065 110.205 884.564C110.866 885.064 111.807 884.933 112.307 884.272L109.913 882.463ZM119.014 875.399C119.514 874.738 119.383 873.797 118.722 873.297C118.061 872.798 117.12 872.928 116.621 873.589L119.014 875.399ZM123.328 864.716C122.829 865.377 122.959 866.318 123.62 866.817C124.281 867.317 125.222 867.186 125.722 866.525L123.328 864.716ZM132.429 857.652C132.929 856.991 132.798 856.05 132.137 855.551C131.476 855.051 130.536 855.182 130.036 855.843L132.429 857.652ZM136.743 846.969C136.244 847.63 136.375 848.571 137.036 849.071C137.697 849.57 138.637 849.44 139.137 848.779L136.743 846.969ZM145.845 839.905C146.344 839.244 146.213 838.304 145.552 837.804C144.892 837.304 143.951 837.435 143.451 838.096L145.845 839.905ZM150.159 829.223C149.659 829.884 149.79 830.824 150.451 831.324C151.112 831.824 152.052 831.693 152.552 831.032L150.159 829.223ZM159.26 822.159C159.759 821.498 159.629 820.557 158.968 820.057C158.307 819.558 157.366 819.688 156.866 820.349L159.26 822.159ZM163.574 811.476C163.074 812.137 163.205 813.078 163.866 813.577C164.527 814.077 165.468 813.946 165.967 813.285L163.574 811.476ZM172.675 804.412C173.174 803.751 173.044 802.81 172.383 802.311C171.722 801.811 170.781 801.942 170.281 802.603L172.675 804.412ZM176.989 793.729C176.489 794.39 176.62 795.331 177.281 795.831C177.942 796.33 178.883 796.2 179.382 795.539L176.989 793.729ZM186.09 786.665C186.59 786.004 186.459 785.064 185.798 784.564C185.137 784.064 184.196 784.195 183.697 784.856L186.09 786.665ZM190.404 775.983C189.904 776.644 190.035 777.584 190.696 778.084C191.357 778.584 192.298 778.453 192.798 777.792L190.404 775.983ZM199.505 768.919C200.005 768.258 199.874 767.317 199.213 766.817C198.552 766.318 197.611 766.448 197.112 767.109L199.505 768.919ZM203.819 758.236C203.32 758.897 203.45 759.838 204.111 760.337C204.772 760.837 205.713 760.706 206.213 760.045L203.819 758.236ZM212.92 751.172C213.42 750.511 213.289 749.57 212.628 749.071C211.967 748.571 211.026 748.702 210.527 749.363L212.92 751.172ZM217.234 740.489C216.735 741.15 216.866 742.091 217.526 742.591C218.187 743.09 219.128 742.96 219.628 742.299L217.234 740.489ZM226.335 733.425C226.835 732.764 226.704 731.823 226.043 731.324C225.382 730.824 224.442 730.955 223.942 731.616L226.335 733.425ZM230.65 722.743C230.15 723.404 230.281 724.344 230.942 724.844C231.603 725.344 232.543 725.213 233.043 724.552L230.65 722.743ZM239.751 715.679C240.25 715.018 240.119 714.077 239.458 713.577C238.798 713.078 237.857 713.208 237.357 713.869L239.751 715.679ZM244.065 704.996C243.565 705.657 243.696 706.598 244.357 707.097C245.018 707.597 245.959 707.466 246.458 706.805L244.065 704.996ZM253.166 697.932C253.665 697.271 253.535 696.33 252.874 695.83C252.213 695.331 251.272 695.462 250.772 696.123L253.166 697.932ZM257.48 687.249C256.98 687.91 257.111 688.851 257.772 689.351C258.433 689.85 259.374 689.719 259.873 689.058L257.48 687.249ZM266.581 680.185C267.081 679.524 266.95 678.583 266.289 678.084C265.628 677.584 264.687 677.715 264.187 678.376L266.581 680.185ZM270.895 669.503C270.395 670.163 270.526 671.104 271.187 671.604C271.848 672.104 272.789 671.973 273.288 671.312L270.895 669.503ZM279.996 662.438C280.496 661.778 280.365 660.837 279.704 660.337C279.043 659.837 278.102 659.968 277.603 660.629L279.996 662.438ZM284.31 651.756C283.811 652.417 283.941 653.358 284.602 653.857C285.263 654.357 286.204 654.226 286.704 653.565L284.31 651.756ZM293.411 644.692C293.911 644.031 293.78 643.09 293.119 642.59C292.458 642.091 291.517 642.222 291.018 642.882L293.411 644.692ZM297.725 634.009C297.226 634.67 297.356 635.611 298.017 636.111C298.678 636.61 299.619 636.479 300.119 635.818L297.725 634.009ZM306.826 626.945C307.326 626.284 307.195 625.343 306.534 624.844C305.873 624.344 304.932 624.475 304.433 625.136L306.826 626.945ZM311.14 616.262C310.641 616.923 310.772 617.864 311.433 618.364C312.094 618.863 313.034 618.733 313.534 618.072L311.14 616.262ZM320.242 609.198C320.741 608.537 320.61 607.597 319.949 607.097C319.288 606.597 318.348 606.728 317.848 607.389L320.242 609.198ZM324.556 598.516C324.056 599.177 324.187 600.118 324.848 600.617C325.509 601.117 326.449 600.986 326.949 600.325L324.556 598.516ZM333.657 591.452C334.156 590.791 334.026 589.85 333.365 589.35C332.704 588.851 331.763 588.981 331.263 589.642L333.657 591.452ZM337.971 580.769C337.471 581.43 337.602 582.371 338.263 582.87C338.924 583.37 339.865 583.239 340.364 582.578L337.971 580.769ZM347.072 573.705C347.571 573.044 347.441 572.103 346.78 571.604C346.119 571.104 345.178 571.235 344.678 571.896L347.072 573.705ZM351.386 563.022C350.886 563.683 351.017 564.624 351.678 565.124C352.339 565.623 353.28 565.493 353.779 564.832L351.386 563.022ZM360.598 554.254C360.902 553.483 360.524 552.612 359.753 552.308C358.983 552.004 358.111 552.382 357.807 553.152L360.598 554.254ZM358.932 540.896C359.089 541.71 359.875 542.243 360.688 542.087C361.502 541.931 362.035 541.144 361.879 540.331L358.932 540.896ZM355.656 527.826C355.101 527.211 354.153 527.162 353.537 527.717C352.922 528.272 352.873 529.22 353.428 529.835L355.656 527.826ZM342.972 523.342C343.771 523.564 344.598 523.097 344.82 522.299C345.042 521.501 344.575 520.674 343.777 520.452L342.972 523.342ZM331.358 519.512C330.529 519.512 329.858 520.184 329.858 521.013C329.858 521.841 330.529 522.513 331.358 522.513V519.512ZM320.496 522.513C321.325 522.513 321.997 521.841 321.997 521.013C321.997 520.184 321.325 519.512 320.496 519.512V522.513ZM309.635 519.512C308.806 519.512 308.135 520.184 308.135 521.013C308.135 521.841 308.806 522.513 309.635 522.513V519.512ZM298.773 522.513C299.602 522.513 300.273 521.841 300.273 521.013C300.273 520.184 299.602 519.512 298.773 519.512V522.513ZM287.912 519.512C287.083 519.512 286.411 520.184 286.411 521.013C286.411 521.841 287.083 522.513 287.912 522.513V519.512ZM277.05 522.513C277.879 522.513 278.55 521.841 278.55 521.013C278.55 520.184 277.879 519.512 277.05 519.512V522.513ZM266.189 519.512C265.36 519.512 264.688 520.184 264.688 521.013C264.688 521.841 265.36 522.513 266.189 522.513V519.512ZM255.327 522.513C256.155 522.513 256.827 521.841 256.827 521.013C256.827 520.184 256.155 519.512 255.327 519.512V522.513ZM244.465 519.512C243.637 519.512 242.965 520.184 242.965 521.013C242.965 521.841 243.637 522.513 244.465 522.513V519.512ZM233.604 522.513C234.432 522.513 235.104 521.841 235.104 521.013C235.104 520.184 234.432 519.512 233.604 519.512V522.513ZM222.742 519.512C221.914 519.512 221.242 520.184 221.242 521.013C221.242 521.841 221.914 522.513 222.742 522.513V519.512ZM211.881 522.513C212.709 522.513 213.381 521.841 213.381 521.013C213.381 520.184 212.709 519.512 211.881 519.512V522.513ZM201.019 519.512C200.191 519.512 199.519 520.184 199.519 521.013C199.519 521.841 200.191 522.513 201.019 522.513V519.512ZM190.158 522.513C190.986 522.513 191.658 521.841 191.658 521.013C191.658 520.184 190.986 519.512 190.158 519.512V522.513ZM179.296 519.512C178.467 519.512 177.796 520.184 177.796 521.013C177.796 521.841 178.467 522.513 179.296 522.513V519.512ZM168.434 522.513C169.263 522.513 169.935 521.841 169.935 521.013C169.935 520.184 169.263 519.512 168.434 519.512V522.513ZM157.573 519.512C156.744 519.512 156.073 520.184 156.073 521.013C156.073 521.841 156.744 522.513 157.573 522.513V519.512ZM146.711 522.513C147.54 522.513 148.211 521.841 148.211 521.013C148.211 520.184 147.54 519.512 146.711 519.512V522.513ZM135.85 519.512C135.021 519.512 134.349 520.184 134.349 521.013C134.349 521.841 135.021 522.513 135.85 522.513V519.512ZM124.988 522.513C125.817 522.513 126.488 521.841 126.488 521.013C126.488 520.184 125.817 519.512 124.988 519.512V522.513ZM114.126 519.512C113.298 519.512 112.626 520.184 112.626 521.013C112.626 521.841 113.298 522.513 114.126 522.513V519.512ZM103.265 522.513C104.093 522.513 104.765 521.841 104.765 521.013C104.765 520.184 104.093 519.512 103.265 519.512V522.513ZM92.4033 519.512C91.5748 519.512 90.9031 520.184 90.9031 521.013C90.9031 521.841 91.5748 522.513 92.4033 522.513V519.512ZM81.5417 522.513C82.3703 522.513 83.0419 521.841 83.0419 521.013C83.0419 520.184 82.3703 519.512 81.5417 519.512V522.513ZM70.6802 519.512C69.8516 519.512 69.18 520.184 69.18 521.013C69.18 521.841 69.8516 522.513 70.6802 522.513V519.512ZM59.8186 522.513C60.6471 522.513 61.3188 521.841 61.3188 521.013C61.3188 520.184 60.6471 519.512 59.8186 519.512V522.513ZM48.957 519.512C48.1285 519.512 47.4568 520.184 47.4568 521.013C47.4568 521.841 48.1285 522.513 48.957 522.513V519.512ZM38.0954 522.513C38.924 522.513 39.5956 521.841 39.5956 521.013C39.5956 520.184 38.924 519.512 38.0954 519.512V522.513ZM28.2713 519.084C27.4585 518.923 26.6693 519.452 26.5085 520.265C26.3477 521.077 26.8763 521.867 27.689 522.027L28.2713 519.084ZM18.4936 518.216C19.1821 518.677 20.1139 518.493 20.5748 517.804C21.0357 517.116 20.8512 516.184 20.1628 515.723L18.4936 518.216ZM13.9511 509.512C13.4902 508.823 12.5584 508.639 11.8699 509.099C11.1814 509.56 10.997 510.492 11.4579 511.181L13.9511 509.512ZM7.64677 501.985C7.80757 502.798 8.5968 503.327 9.40959 503.166C10.2224 503.005 10.7509 502.216 10.5901 501.403L7.64677 501.985ZM10.1618 491.607C10.1618 490.779 9.4901 490.107 8.66157 490.107C7.83304 490.107 7.16137 490.779 7.16137 491.607H10.1618ZM7.16137 480.803C7.16137 481.631 7.83304 482.303 8.66157 482.303C9.4901 482.303 10.1618 481.631 10.1618 480.803H7.16137ZM10.1618 469.998C10.1618 469.17 9.4901 468.498 8.66157 468.498C7.83304 468.498 7.16137 469.17 7.16137 469.998H10.1618ZM7.16137 459.194C7.16137 460.022 7.83304 460.694 8.66157 460.694C9.4901 460.694 10.1618 460.022 10.1618 459.194H7.16137ZM10.1618 448.389C10.1618 447.561 9.4901 446.889 8.66157 446.889C7.83304 446.889 7.16137 447.561 7.16137 448.389H10.1618ZM7.16137 437.585C7.16137 438.413 7.83304 439.085 8.66157 439.085C9.4901 439.085 10.1618 438.413 10.1618 437.585H7.16137ZM10.1618 426.78C10.1618 425.951 9.4901 425.28 8.66157 425.28C7.83304 425.28 7.16137 425.951 7.16137 426.78H10.1618ZM7.16137 415.975C7.16137 416.804 7.83304 417.476 8.66157 417.476C9.4901 417.476 10.1618 416.804 10.1618 415.975H7.16137ZM10.1618 405.171C10.1618 404.342 9.4901 403.671 8.66157 403.671C7.83304 403.671 7.16137 404.342 7.16137 405.171H10.1618ZM7.16137 394.366C7.16137 395.195 7.83304 395.866 8.66157 395.866C9.4901 395.866 10.1618 395.195 10.1618 394.366H7.16137ZM10.1618 383.562C10.1618 382.733 9.4901 382.062 8.66157 382.062C7.83304 382.062 7.16137 382.733 7.16137 383.562H10.1618ZM7.16137 372.757C7.16137 373.586 7.83304 374.257 8.66157 374.257C9.4901 374.257 10.1618 373.586 10.1618 372.757H7.16137ZM10.1618 361.953C10.1618 361.124 9.4901 360.452 8.66157 360.452C7.83304 360.452 7.16137 361.124 7.16137 361.953H10.1618ZM7.16137 351.148C7.16137 351.977 7.83304 352.648 8.66157 352.648C9.4901 352.648 10.1618 351.977 10.1618 351.148H7.16137ZM10.1618 340.344C10.1618 339.515 9.4901 338.843 8.66157 338.843C7.83304 338.843 7.16137 339.515 7.16137 340.344H10.1618ZM7.16137 329.539C7.16137 330.367 7.83304 331.039 8.66157 331.039C9.4901 331.039 10.1618 330.367 10.1618 329.539H7.16137ZM10.1618 318.734C10.1618 317.906 9.4901 317.234 8.66157 317.234C7.83304 317.234 7.16137 317.906 7.16137 318.734H10.1618ZM7.16137 307.93C7.16137 308.758 7.83304 309.43 8.66157 309.43C9.4901 309.43 10.1618 308.758 10.1618 307.93H7.16137ZM10.1618 297.125C10.1618 296.297 9.4901 295.625 8.66157 295.625C7.83304 295.625 7.16137 296.297 7.16137 297.125H10.1618ZM7.16137 286.321C7.16137 287.149 7.83304 287.821 8.66157 287.821C9.4901 287.821 10.1618 287.149 10.1618 286.321H7.16137ZM10.1618 275.516C10.1618 274.688 9.4901 274.016 8.66157 274.016C7.83304 274.016 7.16137 274.688 7.16137 275.516H10.1618ZM7.16137 264.712C7.16137 265.54 7.83304 266.212 8.66157 266.212C9.4901 266.212 10.1618 265.54 10.1618 264.712H7.16137ZM10.1618 253.907C10.1618 253.078 9.4901 252.407 8.66157 252.407C7.83304 252.407 7.16137 253.078 7.16137 253.907H10.1618ZM7.16137 243.102C7.16137 243.931 7.83304 244.603 8.66157 244.603C9.4901 244.603 10.1618 243.931 10.1618 243.102H7.16137ZM10.1618 232.298C10.1618 231.469 9.4901 230.798 8.66157 230.798C7.83304 230.798 7.16137 231.469 7.16137 232.298H10.1618ZM7.16137 221.493C7.16137 222.322 7.83304 222.994 8.66157 222.994C9.4901 222.994 10.1618 222.322 10.1618 221.493H7.16137ZM10.1618 210.689C10.1618 209.86 9.4901 209.189 8.66157 209.189C7.83304 209.189 7.16137 209.86 7.16137 210.689H10.1618ZM7.16137 199.884C7.16137 200.713 7.83304 201.384 8.66157 201.384C9.4901 201.384 10.1618 200.713 10.1618 199.884H7.16137ZM10.1618 189.08C10.1618 188.251 9.4901 187.579 8.66157 187.579C7.83304 187.579 7.16137 188.251 7.16137 189.08H10.1618ZM7.16137 178.275C7.16137 179.104 7.83304 179.775 8.66157 179.775C9.4901 179.775 10.1618 179.104 10.1618 178.275H7.16137ZM10.1618 167.471C10.1618 166.642 9.4901 165.97 8.66157 165.97C7.83304 165.97 7.16137 166.642 7.16137 167.471H10.1618ZM7.16137 156.666C7.16137 157.494 7.83304 158.166 8.66157 158.166C9.4901 158.166 10.1618 157.494 10.1618 156.666H7.16137ZM10.1618 145.861C10.1618 145.033 9.4901 144.361 8.66157 144.361C7.83304 144.361 7.16137 145.033 7.16137 145.861H10.1618ZM7.16137 135.057C7.16137 135.885 7.83304 136.557 8.66157 136.557C9.4901 136.557 10.1618 135.885 10.1618 135.057H7.16137ZM10.1618 124.252C10.1618 123.424 9.4901 122.752 8.66157 122.752C7.83304 122.752 7.16137 123.424 7.16137 124.252H10.1618ZM7.16137 113.448C7.16137 114.276 7.83304 114.948 8.66157 114.948C9.4901 114.948 10.1618 114.276 10.1618 113.448H7.16137ZM10.1618 102.643C10.1618 101.815 9.4901 101.143 8.66157 101.143C7.83304 101.143 7.16137 101.815 7.16137 102.643H10.1618ZM7.16137 91.8386C7.16137 92.6671 7.83304 93.3387 8.66157 93.3387C9.4901 93.3387 10.1618 92.6671 10.1618 91.8386H7.16137ZM10.1618 81.034C10.1618 80.2055 9.4901 79.5338 8.66157 79.5338C7.83304 79.5338 7.16137 80.2055 7.16137 81.034H10.1618ZM7.16137 70.2295C7.16137 71.058 7.83304 71.7296 8.66157 71.7296C9.4901 71.7296 10.1618 71.058 10.1618 70.2295H7.16137ZM10.1618 59.4249C10.1618 58.5963 9.4901 57.9247 8.66157 57.9247C7.83304 57.9247 7.16137 58.5963 7.16137 59.4249H10.1618ZM7.16137 48.6203C7.16137 49.4488 7.83304 50.1205 8.66157 50.1205C9.4901 50.1205 10.1618 49.4488 10.1618 48.6203H7.16137ZM10.1618 37.8158C10.1618 36.9872 9.4901 36.3156 8.66157 36.3156C7.83304 36.3156 7.16137 36.9872 7.16137 37.8158H10.1618ZM7.16137 27.0112C7.16137 27.8397 7.83304 28.5114 8.66157 28.5114C9.4901 28.5114 10.1618 27.8397 10.1618 27.0112H7.16137ZM10.1618 16.2066C10.1618 15.3781 9.4901 14.7064 8.66157 14.7064C7.83304 14.7064 7.16137 15.3781 7.16137 16.2066H10.1618ZM7.16137 5.40207C7.16137 6.2306 7.83304 6.90226 8.66157 6.90226C9.4901 6.90226 10.1618 6.2306 10.1618 5.40207H7.16137ZM17.9368 1586.24L19.1865 1587.07L25.3701 1577.77L24.1204 1576.94L22.8708 1576.11L16.6872 1585.41L17.9368 1586.24ZM30.304 1567.63L31.5536 1568.46L37.7372 1559.15L36.4876 1558.32L35.238 1557.49L29.0544 1566.8L30.304 1567.63ZM42.6712 1549.01L43.9208 1549.84L50.1044 1540.53L48.8548 1539.7L47.6052 1538.87L41.4216 1548.18L42.6712 1549.01ZM55.0384 1530.39L56.288 1531.22L62.4716 1521.91L61.222 1521.08L59.9724 1520.25L53.7888 1529.56L55.0384 1530.39ZM67.4056 1511.77L68.6552 1512.6L74.8388 1503.3L73.5892 1502.47L72.3395 1501.64L66.1559 1510.94L67.4056 1511.77ZM79.7727 1493.16L81.0224 1493.99L87.2059 1484.68L85.9563 1483.85L84.7067 1483.02L78.5231 1492.33L79.7727 1493.16ZM92.1399 1474.54L93.3895 1475.37L99.5731 1466.06L98.3235 1465.23L97.0739 1464.4L90.8903 1473.71L92.1399 1474.54ZM104.507 1455.92L105.757 1456.75L111.94 1447.44L110.691 1446.61L109.441 1445.78L103.257 1455.09L104.507 1455.92ZM116.874 1437.31L118.124 1438.14L124.307 1428.83L123.058 1428L121.808 1427.17L115.625 1436.47L116.874 1437.31ZM129.241 1418.69L130.491 1419.52L136.675 1410.21L135.425 1409.38L134.175 1408.55L127.992 1417.86L129.241 1418.69ZM141.609 1400.07L142.858 1400.9L149.042 1391.59L147.792 1390.76L146.543 1389.93L140.359 1399.24L141.609 1400.07ZM153.976 1381.45L155.225 1382.28L161.409 1372.97L160.159 1372.14L158.91 1371.31L152.726 1380.62L153.976 1381.45ZM166.343 1362.84L167.593 1363.67L173.776 1354.36L172.527 1353.53L171.277 1352.7L165.093 1362.01L166.343 1362.84ZM178.71 1344.22L179.96 1345.05L186.143 1335.74L184.894 1334.91L183.644 1334.08L177.461 1343.39L178.71 1344.22ZM191.077 1325.6L192.327 1326.43L198.511 1317.12L197.261 1316.29L196.011 1315.46L189.828 1324.77L191.077 1325.6ZM203.445 1306.98L204.694 1307.81L210.878 1298.5L209.628 1297.67L208.379 1296.84L202.195 1306.15L203.445 1306.98ZM215.812 1288.37L217.061 1289.2L223.245 1279.89L221.995 1279.06L220.746 1278.23L214.562 1287.54L215.812 1288.37ZM228.179 1269.75L229.428 1270.58L235.612 1261.27L234.362 1260.44L233.113 1259.61L226.929 1268.92L228.179 1269.75ZM240.546 1251.13L241.796 1251.96L247.979 1242.65L246.73 1241.82L245.48 1240.99L239.296 1250.3L240.546 1251.13ZM252.913 1232.51L254.163 1233.34L260.346 1224.03L259.097 1223.2L257.847 1222.37L251.664 1231.68L252.913 1232.51ZM265.28 1213.9L266.53 1214.73L272.714 1205.42L271.464 1204.59L270.214 1203.76L264.031 1213.07L265.28 1213.9ZM277.648 1195.28L278.897 1196.11L285.081 1186.8L283.831 1185.97L282.582 1185.14L276.398 1194.45L277.648 1195.28ZM290.015 1176.66L291.264 1177.49L297.448 1168.18L296.198 1167.35L294.949 1166.52L288.765 1175.83L290.015 1176.66ZM302.382 1158.04L303.632 1158.87L309.815 1149.57L308.566 1148.74L307.316 1147.9L301.132 1157.21L302.382 1158.04ZM314.749 1139.43L315.999 1140.26L322.182 1130.95L320.933 1130.12L319.683 1129.29L313.5 1138.6L314.749 1139.43ZM327.116 1120.81L328.366 1121.64L334.55 1112.33L333.3 1111.5L332.05 1110.67L325.867 1119.98L327.116 1120.81ZM339.484 1102.19L340.733 1103.02L346.917 1093.71L345.667 1092.88L344.418 1092.05L338.234 1101.36L339.484 1102.19ZM351.851 1083.57L353.1 1084.4L356.192 1079.75L354.942 1078.92L353.693 1078.09L350.601 1082.74L351.851 1083.57ZM354.942 1078.92L356.192 1079.75C357.51 1077.77 358.509 1075.7 359.211 1073.59L357.788 1073.12L356.365 1072.64C355.747 1074.5 354.865 1076.33 353.693 1078.09L354.942 1078.92ZM358.378 1060.34L359.839 1060C358.804 1055.52 356.575 1051.37 353.416 1048.02L352.326 1049.05L351.236 1050.09C354.029 1053.04 356.001 1056.72 356.916 1060.68L358.378 1060.34ZM341.356 1042.47L341.748 1041.03C339.606 1040.45 337.33 1040.13 334.949 1040.13V1041.64V1043.14C337.067 1043.14 339.078 1043.41 340.964 1043.92L341.356 1042.47ZM334.949 1041.64V1040.13H329.271V1041.64V1043.14H334.949V1041.64ZM317.915 1041.64V1040.13H306.56V1041.64V1043.14H317.915V1041.64ZM295.204 1041.64V1040.13H283.849V1041.64V1043.14H295.204V1041.64ZM272.493 1041.64V1040.13H261.138V1041.64V1043.14H272.493V1041.64ZM249.782 1041.64V1040.13H238.427V1041.64V1043.14H249.782V1041.64ZM227.071 1041.64V1040.13H215.716V1041.64V1043.14H227.071V1041.64ZM204.36 1041.64V1040.13H193.005V1041.64V1043.14H204.36V1041.64ZM181.649 1041.64V1040.13H170.294V1041.64V1043.14H181.649V1041.64ZM158.938 1041.64V1040.13H147.583V1041.64V1043.14H158.938V1041.64ZM136.227 1041.64V1040.13H124.872V1041.64V1043.14H136.227V1041.64ZM113.516 1041.64V1040.13H102.161V1041.64V1043.14H113.516V1041.64ZM90.8052 1041.64V1040.13H79.4497V1041.64V1043.14H90.8052V1041.64ZM68.0942 1041.64V1040.13H56.7387V1041.64V1043.14H68.0942V1041.64ZM45.3832 1041.64V1040.13H39.7055V1041.64V1043.14H45.3832V1041.64ZM39.7055 1041.64V1040.13C37.5201 1040.13 35.4523 1039.84 33.5217 1039.31L33.1197 1040.75L32.7176 1042.2C34.9121 1042.81 37.2505 1043.14 39.7055 1043.14V1041.64ZM21.9521 1033.82L23.0661 1032.81C20.2658 1029.71 18.3497 1025.86 17.5618 1021.75L16.0884 1022.03L14.6151 1022.32C15.5063 1026.96 17.671 1031.31 20.8381 1034.82L21.9521 1033.82ZM17.2916 1008.94L18.6871 1009.5C19.4228 1007.63 20.4365 1005.81 21.7543 1004.06L20.5576 1003.16L19.3609 1002.25C17.8805 1004.21 16.7326 1006.28 15.8962 1008.39L17.2916 1008.94ZM20.5576 1003.16L21.7543 1004.06L25.1081 999.626L23.9114 998.721L22.7146 997.816L19.3609 1002.25L20.5576 1003.16ZM30.619 989.848L31.8157 990.752L38.5233 981.879L37.3265 980.974L36.1298 980.07L29.4222 988.943L30.619 989.848ZM44.0341 972.101L45.2309 973.006L51.9385 964.132L50.7417 963.228L49.545 962.323L42.8374 971.196L44.0341 972.101ZM57.4493 954.354L58.646 955.259L65.3536 946.385L64.1569 945.481L62.9601 944.576L56.2525 953.45L57.4493 954.354ZM70.8644 936.607L72.0612 937.512L78.7688 928.639L77.572 927.734L76.3753 926.829L69.6677 935.703L70.8644 936.607ZM84.2796 918.861L85.4763 919.765L92.1839 910.892L90.9872 909.987L89.7904 909.083L83.0829 917.956L84.2796 918.861ZM97.6948 901.114L98.8915 902.019L105.599 893.145L104.402 892.241L103.206 891.336L96.498 900.209L97.6948 901.114ZM111.11 883.367L112.307 884.272L119.014 875.399L117.818 874.494L116.621 873.589L109.913 882.463L111.11 883.367ZM124.525 865.621L125.722 866.525L132.429 857.652L131.233 856.747L130.036 855.843L123.328 864.716L124.525 865.621ZM137.94 847.874L139.137 848.779L145.845 839.905L144.648 839.001L143.451 838.096L136.743 846.969L137.94 847.874ZM151.355 830.127L152.552 831.032L159.26 822.159L158.063 821.254L156.866 820.349L150.159 829.223L151.355 830.127ZM164.771 812.381L165.967 813.285L172.675 804.412L171.478 803.507L170.281 802.603L163.574 811.476L164.771 812.381ZM178.186 794.634L179.382 795.539L186.09 786.665L184.893 785.761L183.697 784.856L176.989 793.729L178.186 794.634ZM191.601 776.887L192.798 777.792L199.505 768.919L198.308 768.014L197.112 767.109L190.404 775.983L191.601 776.887ZM205.016 759.141L206.213 760.045L212.92 751.172L211.724 750.267L210.527 749.363L203.819 758.236L205.016 759.141ZM218.431 741.394L219.628 742.299L226.335 733.425L225.139 732.521L223.942 731.616L217.234 740.489L218.431 741.394ZM231.846 723.647L233.043 724.552L239.751 715.679L238.554 714.774L237.357 713.869L230.65 722.743L231.846 723.647ZM245.261 705.9L246.458 706.805L253.166 697.932L251.969 697.027L250.772 696.123L244.065 704.996L245.261 705.9ZM258.677 688.154L259.873 689.058L266.581 680.185L265.384 679.281L264.187 678.376L257.48 687.249L258.677 688.154ZM272.092 670.407L273.288 671.312L279.996 662.438L278.799 661.534L277.603 660.629L270.895 669.503L272.092 670.407ZM285.507 652.661L286.704 653.565L293.411 644.692L292.214 643.787L291.018 642.882L284.31 651.756L285.507 652.661ZM298.922 634.914L300.119 635.818L306.826 626.945L305.63 626.04L304.433 625.136L297.725 634.009L298.922 634.914ZM312.337 617.167L313.534 618.072L320.242 609.198L319.045 608.294L317.848 607.389L311.14 616.262L312.337 617.167ZM325.752 599.42L326.949 600.325L333.657 591.452L332.46 590.547L331.263 589.642L324.556 598.516L325.752 599.42ZM339.168 581.674L340.364 582.578L347.072 573.705L345.875 572.8L344.678 571.896L337.971 580.769L339.168 581.674ZM352.583 563.927L353.779 564.832L357.133 560.395L355.937 559.49L354.74 558.585L351.386 563.022L352.583 563.927ZM355.937 559.49L357.133 560.395C358.614 558.436 359.762 556.373 360.598 554.254L359.203 553.703L357.807 553.152C357.071 555.016 356.058 556.842 354.74 558.585L355.937 559.49ZM360.406 540.614L361.879 540.331C360.988 535.687 358.823 531.337 355.656 527.826L354.542 528.831L353.428 529.835C356.228 532.94 358.144 536.79 358.932 540.896L360.406 540.614ZM343.375 521.897L343.777 520.452C341.582 519.841 339.244 519.512 336.789 519.512V521.013V522.513C338.974 522.513 341.042 522.805 342.972 523.342L343.375 521.897ZM336.789 521.013V519.512H331.358V521.013V522.513H336.789V521.013ZM320.496 521.013V519.512H309.635V521.013V522.513H320.496V521.013ZM298.773 521.013V519.512H287.912V521.013V522.513H298.773V521.013ZM277.05 521.013V519.512H266.189V521.013V522.513H277.05V521.013ZM255.327 521.013V519.512H244.465V521.013V522.513H255.327V521.013ZM233.604 521.013V519.512H222.742V521.013V522.513H233.604V521.013ZM211.881 521.013V519.512H201.019V521.013V522.513H211.881V521.013ZM190.158 521.013V519.512H179.296V521.013V522.513H190.158V521.013ZM168.434 521.013V519.512H157.573V521.013V522.513H168.434V521.013ZM146.711 521.013V519.512H135.85V521.013V522.513H146.711V521.013ZM124.988 521.013V519.512H114.126V521.013V522.513H124.988V521.013ZM103.265 521.013V519.512H92.4033V521.013V522.513H103.265V521.013ZM81.5417 521.013V519.512H70.6802V521.013V522.513H81.5417V521.013ZM59.8186 521.013V519.512H48.957V521.013V522.513H59.8186V521.013ZM38.0954 521.013V519.512H32.6647V521.013V522.513H38.0954V521.013ZM32.6647 521.013V519.512C31.1599 519.512 29.691 519.365 28.2713 519.084L27.9802 520.556L27.689 522.027C29.2995 522.346 30.9634 522.513 32.6647 522.513V521.013ZM19.3282 516.97L20.1628 515.723C17.7081 514.08 15.5945 511.966 13.9511 509.512L12.7045 510.346L11.4579 511.181C13.3194 513.961 15.7131 516.355 18.4936 518.216L19.3282 516.97ZM9.11845 501.694L10.5901 501.403C10.3093 499.983 10.1618 498.514 10.1618 497.01H8.66157H7.16137C7.16137 498.711 7.32818 500.375 7.64677 501.985L9.11845 501.694ZM8.66157 497.01H10.1618V491.607H8.66157H7.16137V497.01H8.66157ZM8.66157 480.803H10.1618V469.998H8.66157H7.16137V480.803H8.66157ZM8.66157 459.194H10.1618V448.389H8.66157H7.16137V459.194H8.66157ZM8.66157 437.585H10.1618V426.78H8.66157H7.16137V437.585H8.66157ZM8.66157 415.975H10.1618V405.171H8.66157H7.16137V415.975H8.66157ZM8.66157 394.366H10.1618V383.562H8.66157H7.16137V394.366H8.66157ZM8.66157 372.757H10.1618V361.953H8.66157H7.16137V372.757H8.66157ZM8.66157 351.148H10.1618V340.344H8.66157H7.16137V351.148H8.66157ZM8.66157 329.539H10.1618V318.734H8.66157H7.16137V329.539H8.66157ZM8.66157 307.93H10.1618V297.125H8.66157H7.16137V307.93H8.66157ZM8.66157 286.321H10.1618V275.516H8.66157H7.16137V286.321H8.66157ZM8.66157 264.712H10.1618V253.907H8.66157H7.16137V264.712H8.66157ZM8.66157 243.102H10.1618V232.298H8.66157H7.16137V243.102H8.66157ZM8.66157 221.493H10.1618V210.689H8.66157H7.16137V221.493H8.66157ZM8.66157 199.884H10.1618V189.08H8.66157H7.16137V199.884H8.66157ZM8.66157 178.275H10.1618V167.471H8.66157H7.16137V178.275H8.66157ZM8.66157 156.666H10.1618V145.861H8.66157H7.16137V156.666H8.66157ZM8.66157 135.057H10.1618V124.252H8.66157H7.16137V135.057H8.66157ZM8.66157 113.448H10.1618V102.643H8.66157H7.16137V113.448H8.66157ZM8.66157 91.8386H10.1618V81.034H8.66157H7.16137V91.8386H8.66157ZM8.66157 70.2295H10.1618V59.4249H8.66157H7.16137V70.2295H8.66157ZM8.66157 48.6203H10.1618V37.8158H8.66157H7.16137V48.6203H8.66157ZM8.66157 27.0112H10.1618V16.2066H8.66157H7.16137V27.0112H8.66157Z" fill="#0A639D"/>
</svg>
