<svg width="305" height="287" viewBox="0 0 305 287" fill="none" xmlns="http://www.w3.org/2000/svg">
<g filter="url(#filter0_d_1_1625)">
<path d="M88.3066 87.9546C85.9972 89.7881 85.6114 93.1464 87.4448 95.4558C89.2782 97.7652 92.6366 98.1511 94.946 96.3177C97.2554 94.4843 97.6412 91.1259 95.8078 88.8165C93.9744 86.5071 90.616 86.1212 88.3066 87.9546ZM156.88 232.607C154.57 234.44 154.185 237.799 156.018 240.108C157.851 242.417 161.21 242.803 163.519 240.97C165.829 239.136 166.214 235.778 164.381 233.469C162.548 231.159 159.189 230.773 156.88 232.607ZM102.668 207.32L103.212 208.161L102.668 207.32ZM111.364 236.788L111.365 235.787L111.364 236.788ZM226.553 92.1357L226.553 91.1347L226.553 92.1357ZM235.249 121.604L234.706 120.763L235.249 121.604ZM91.6263 92.1362L91.6263 93.1372L94.9995 93.1372L94.9995 92.1362L94.9995 91.1351L91.6263 91.1351L91.6263 92.1362ZM101.746 92.1361L101.746 93.1372L108.492 93.1372L108.492 92.1361L108.492 91.135L101.746 91.1351L101.746 92.1361ZM115.238 92.1361L115.238 93.1372L121.985 93.1371L121.985 92.1361L121.985 91.135L115.238 91.135L115.238 92.1361ZM128.731 92.136L128.731 93.1371L135.477 93.1371L135.477 92.136L135.477 91.135L128.731 91.135L128.731 92.136ZM142.224 92.136L142.224 93.1371L148.97 93.137L148.97 92.136L148.97 91.1349L142.224 91.1349L142.224 92.136ZM155.716 92.136L155.716 93.137L162.463 93.137L162.463 92.1359L162.463 91.1349L155.716 91.1349L155.716 92.136ZM169.209 92.1359L169.209 93.137L175.955 93.137L175.955 92.1359L175.955 91.1348L169.209 91.1348L169.209 92.1359ZM182.702 92.1359L182.702 93.1369L189.448 93.1369L189.448 92.1358L189.448 91.1348L182.702 91.1348L182.702 92.1359ZM196.194 92.1358L196.194 93.1369L202.941 93.1369L202.941 92.1358L202.941 91.1347L196.194 91.1348L196.194 92.1358ZM209.687 92.1358L209.687 93.1369L216.433 93.1368L216.433 92.1358L216.433 91.1347L209.687 91.1347L209.687 92.1358ZM223.18 92.1357L223.18 93.1368L226.553 93.1368L226.553 92.1357L226.553 91.1347L223.18 91.1347L223.18 92.1357ZM226.553 92.1357L226.553 93.1368C227.683 93.1368 228.758 93.2472 229.772 93.4533L229.972 92.4722L230.171 91.4912C229.022 91.2579 227.814 91.1347 226.553 91.1347L226.553 92.1357ZM236.19 95.2561L235.588 96.0556C237.322 97.3625 238.72 99.036 239.73 100.919L240.613 100.446L241.495 99.9725C240.355 97.8478 238.771 95.9471 236.792 94.4566L236.19 95.2561ZM242.544 106.991L241.547 107.073C241.72 109.203 241.455 111.367 240.708 113.406L241.648 113.751L242.588 114.095C243.44 111.769 243.738 109.313 243.542 106.91L242.544 106.991ZM237.938 119.465L237.238 118.749C236.497 119.473 235.655 120.149 234.706 120.763L235.249 121.604L235.793 122.444C236.852 121.759 237.799 121 238.638 120.18L237.938 119.465ZM235.249 121.604L234.706 120.763L231.692 122.711L232.236 123.552L232.779 124.392L235.793 122.444L235.249 121.604ZM226.209 127.448L225.666 126.607L219.64 130.503L220.183 131.344L220.727 132.185L226.753 128.289L226.209 127.448ZM214.157 135.24L213.613 134.4L207.587 138.296L208.13 139.137L208.674 139.977L214.7 136.081L214.157 135.24ZM202.104 143.033L201.56 142.192L195.534 146.088L196.077 146.929L196.621 147.77L202.647 143.873L202.104 143.033ZM190.051 150.825L189.508 149.985L183.481 153.881L184.025 154.721L184.568 155.562L190.595 151.666L190.051 150.825ZM177.998 158.618L177.455 157.777L171.428 161.673L171.972 162.514L172.515 163.355L178.542 159.458L177.998 158.618ZM165.945 166.41L165.402 165.569L159.376 169.466L159.919 170.306L160.463 171.147L166.489 167.251L165.945 166.41ZM153.893 174.203L153.349 173.362L147.323 177.258L147.866 178.099L148.41 178.939L154.436 175.043L153.893 174.203ZM141.84 181.995L141.296 181.154L135.27 185.051L135.813 185.891L136.357 186.732L142.383 182.836L141.84 181.995ZM129.787 189.787L129.244 188.947L123.217 192.843L123.761 193.684L124.304 194.524L130.331 190.628L129.787 189.787ZM117.734 197.58L117.191 196.739L111.164 200.635L111.708 201.476L112.251 202.317L118.278 198.421L117.734 197.58ZM105.681 205.372L105.138 204.532L102.125 206.48L102.668 207.32L103.212 208.161L106.225 206.213L105.681 205.372ZM102.668 207.32L102.125 206.48C101.065 207.165 100.118 207.924 99.2797 208.744L99.9797 209.459L100.68 210.175C101.42 209.451 102.262 208.775 103.212 208.161L102.668 207.32ZM96.2692 215.173L95.3292 214.829C94.4773 217.155 94.179 219.611 94.3753 222.014L95.373 221.933L96.3707 221.851C96.1968 219.721 96.4622 217.557 97.2092 215.518L96.2692 215.173ZM97.3047 228.478L96.4226 228.951C97.5625 231.076 99.1466 232.977 101.125 234.467L101.727 233.668L102.33 232.868C100.595 231.561 99.1971 229.888 98.1868 228.005L97.3047 228.478ZM107.945 236.452L107.746 237.433C108.895 237.666 110.103 237.789 111.365 237.789L111.364 236.788L111.365 235.787C110.234 235.787 109.159 235.677 108.145 235.471L107.945 236.452ZM111.364 236.788L111.365 237.789L115.434 237.789L115.434 236.788L115.434 235.787L111.365 235.787L111.364 236.788ZM123.573 236.788L123.573 237.789L131.712 237.789L131.712 236.788L131.712 235.787L123.573 235.787L123.573 236.788ZM139.852 236.788L139.852 237.789L147.991 237.789L147.991 236.788L147.991 235.787L139.852 235.787L139.852 236.788ZM156.13 236.788L156.13 237.789L160.2 237.789L160.2 236.788L160.2 235.787L156.13 235.787L156.13 236.788Z" fill="#FF8F1F"/>
</g>
<defs>
<filter id="filter0_d_1_1625" x="82.2828" y="86.7969" width="165.321" height="163.339" filterUnits="userSpaceOnUse" color-interpolation-filters="sRGB">
<feFlood flood-opacity="0" result="BackgroundImageFix"/>
<feColorMatrix in="SourceAlpha" type="matrix" values="0 0 0 0 0 0 0 0 0 0 0 0 0 0 0 0 0 0 127 0" result="hardAlpha"/>
<feOffset dy="4"/>
<feGaussianBlur stdDeviation="2"/>
<feComposite in2="hardAlpha" operator="out"/>
<feColorMatrix type="matrix" values="0 0 0 0 1 0 0 0 0 0.635294 0 0 0 0 0.270588 0 0 0 1 0"/>
<feBlend mode="normal" in2="BackgroundImageFix" result="effect1_dropShadow_1_1625"/>
<feBlend mode="normal" in="SourceGraphic" in2="effect1_dropShadow_1_1625" result="shape"/>
</filter>
</defs>
</svg>
