<svg width="30" height="30" viewBox="0 0 30 30" fill="none" xmlns="http://www.w3.org/2000/svg">
<path d="M25.3893 5.57589C22.4716 2.6004 19.0929 3.85532 17.0008 5.18241C15.8187 5.93227 14.1812 5.93227 12.9991 5.18241C10.907 3.85533 7.52839 2.60043 4.61066 5.5759C-2.31561 12.6392 9.56234 26.25 15 26.25C20.4377 26.25 32.3156 12.6392 25.3893 5.57589Z" fill="#D9D9D9"/>
<path d="M6.25001 10.9709C6.5085 10.1327 6.97153 9.34504 7.68158 8.64105C8.24064 8.08677 8.82086 7.72123 9.40301 7.5M17.0008 5.18241C19.0929 3.85532 22.4716 2.6004 25.3893 5.57589C32.3156 12.6392 20.4377 26.25 15 26.25C9.56234 26.25 -2.31561 12.6392 4.61066 5.5759C7.52839 2.60043 10.907 3.85533 12.9991 5.18241C14.1812 5.93227 15.8187 5.93227 17.0008 5.18241Z" stroke="white" stroke-width="2.5" stroke-linecap="round"/>
</svg>
