<svg width="62" height="62" viewBox="0 0 62 62" fill="none" xmlns="http://www.w3.org/2000/svg">
<path d="M23.25 10.3333L18.0833 15.4999L12.9167 20.6666L18.0833 25.8333L23.25 30.9999L25.0583 29.1916L26.8667 27.3833L23.5083 24.0249L20.15 20.6666L23.5083 17.3083L26.8667 13.9499L25.0583 12.1416L23.25 10.3333ZM38.75 10.3333L36.9417 12.1416L35.1333 13.9499L38.4917 17.3083L41.85 20.6666L38.4917 24.0249L35.1333 27.3833L36.9417 29.1916L38.75 30.9999L43.9167 25.8333L49.0833 20.6666L43.9167 15.4999L38.75 10.3333ZM54.1906 49.3158L53.1883 45.3581C53.1237 45.1059 53.009 44.8694 52.851 44.6626C52.6929 44.4557 52.4949 44.2828 52.2686 44.1542C52.0411 44.0235 51.7897 43.9396 51.5292 43.9077C51.2688 43.8758 51.0045 43.8963 50.7522 43.9683L38.9928 47.2853L31 43.9166L41.1138 41.3255C41.802 40.7077 42.3017 39.908 42.5553 39.0186L41.7622 36.1666L20.6667 38.7499H7.75V54.2499H20.6667L32.1754 56.7403C32.8011 56.797 33.4312 56.7823 34.0535 56.6963L52.8085 51.6485C53.2999 51.5155 53.7204 51.1969 53.9813 50.7598C54.24 50.3244 54.3152 49.8067 54.1906 49.3158ZM15.5 51.6666H10.3333V41.3333H15.5V51.6666ZM33.3818 54.2034C33.2652 54.2327 33.1456 54.2483 33.0253 54.2499C32.9254 54.2511 32.8257 54.2407 32.7283 54.2189L20.6667 51.571V41.3849L39.5999 39.0393L25.8333 43.9166L38.0293 49.6826L38.8482 50.0107L39.6955 49.7704L50.8452 46.6265L51.5272 49.3183L33.3818 54.2034Z" fill="#0A639D"/>
</svg>
