<svg width="28" height="28" viewBox="0 0 28 28" fill="none" xmlns="http://www.w3.org/2000/svg">
<path d="M10.8916 5.60273C11.3689 5.52713 11.6946 5.07892 11.619 4.60162C11.5434 4.12432 11.0952 3.79868 10.6179 3.87427C7.74742 4.32891 5.49617 6.58016 5.04153 9.4506C4.96594 9.9279 5.29158 10.3761 5.76888 10.4517C6.24618 10.5273 6.69439 10.2017 6.76999 9.72436C7.10602 7.60273 8.76999 5.93876 10.8916 5.60273Z" fill="white"/>
<path fill-rule="evenodd" clip-rule="evenodd" d="M12.834 0.291687C6.55175 0.291687 1.45898 5.38445 1.45898 11.6667C1.45898 17.9489 6.55175 23.0417 12.834 23.0417C19.1162 23.0417 24.209 17.9489 24.209 11.6667C24.209 5.38445 19.1162 0.291687 12.834 0.291687ZM3.20898 11.6667C3.20898 6.35095 7.51824 2.04169 12.834 2.04169C18.1497 2.04169 22.459 6.35095 22.459 11.6667C22.459 16.9824 18.1497 21.2917 12.834 21.2917C7.51824 21.2917 3.20898 16.9824 3.20898 11.6667Z" fill="white"/>
<path d="M22.7861 20.3814C22.4444 20.0397 21.8904 20.0397 21.5487 20.3814C21.207 20.7231 21.207 21.2771 21.5487 21.6188L26.2152 26.2854C26.5569 26.6272 27.1109 26.6272 27.4527 26.2855C27.7944 25.9437 27.7944 25.3897 27.4527 25.048L22.7861 20.3814Z" fill="white"/>
</svg>
