<svg width="24" height="24" viewBox="0 0 24 24" fill="none" xmlns="http://www.w3.org/2000/svg">
<g clip-path="url(#clip0_1_1415)">
<path d="M9.47417 10.5135C9.77867 10.293 9.92417 9.92702 9.92417 9.42152C9.93491 9.18339 9.88483 8.94644 9.77867 8.73302C9.6835 8.55922 9.54235 8.41496 9.37067 8.31602C9.19216 8.20858 8.99451 8.13675 8.78867 8.10452C8.56465 8.06243 8.33711 8.04183 8.10917 8.04302H5.63867V10.8465H8.31017C8.77967 10.851 9.16967 10.7385 9.47417 10.5135ZM9.89117 13.0455C9.54467 12.783 9.08567 12.6525 8.51267 12.6525H5.63867V15.957H8.45567C8.71817 15.957 8.96267 15.933 9.19667 15.882C9.43067 15.831 9.64217 15.75 9.82067 15.6285C9.99917 15.5115 10.1447 15.3525 10.2512 15.15C10.3577 14.9475 10.4102 14.6865 10.4102 14.3715C10.4102 13.7535 10.2377 13.3125 9.89117 13.0455Z" fill="#0A639D"/>
<path d="M21.75 0H2.25C1.0125 0 0 1.0125 0 2.25V21.75C0 22.9875 1.0125 24 2.25 24H21.75C22.9875 24 24 22.9875 24 21.75V2.25C24 1.0125 22.9875 0 21.75 0ZM15.732 6.3135H20.5935V7.5H15.732V6.3135ZM12.6945 16.0875C12.4692 16.5196 12.1448 16.8922 11.748 17.175C11.3343 17.4625 10.8725 17.6739 10.3845 17.799C9.87361 17.9346 9.34707 18.0021 8.8185 18H3.0015V6.0045H8.655C9.2265 6.0045 9.747 6.0555 10.221 6.1545C10.6905 6.2535 11.0925 6.4215 11.43 6.651C11.763 6.8805 12.0255 7.185 12.213 7.5645C12.396 7.9395 12.489 8.4135 12.489 8.9715C12.489 9.576 12.3525 10.077 12.0765 10.4805C11.8005 10.884 11.397 11.211 10.8525 11.469C11.5935 11.6805 12.1365 12.0555 12.498 12.585C12.864 13.119 13.0425 13.761 13.0425 14.511C13.047 15.1245 12.93 15.6495 12.696 16.086L12.6945 16.0875ZM22.4865 14.232H16.2195C16.2195 14.916 16.4535 15.5685 16.8105 15.9195C17.1675 16.266 17.682 16.4445 18.3525 16.4445C18.8355 16.4445 19.248 16.323 19.599 16.0785C19.9455 15.8355 20.157 15.5775 20.2365 15.3105H22.3365C21.999 16.356 21.4875 17.1015 20.79 17.5515C20.1015 18.0015 19.257 18.2265 18.2775 18.2265C17.5935 18.2265 16.9785 18.114 16.4265 17.898C15.8974 17.6921 15.4194 17.3738 15.0255 16.965C14.6378 16.5457 14.3379 16.053 14.1435 15.516C13.9306 14.9223 13.8244 14.2957 13.83 13.665C13.83 13.014 13.938 12.408 14.1495 11.8455C14.3496 11.3047 14.6583 10.8107 15.0566 10.3938C15.4549 9.9769 15.9344 9.64601 16.4655 9.4215C17.038 9.18151 17.6538 9.06202 18.2745 9.0705C19.011 9.0705 19.653 9.2115 20.205 9.501C20.754 9.7875 21.204 10.1715 21.5595 10.6545C21.915 11.1375 22.164 11.6865 22.323 12.3045C22.4775 12.9135 22.5285 13.557 22.4865 14.232Z" fill="#0A639D"/>
<path d="M18.2012 10.8706C17.8217 10.8706 17.5022 10.9366 17.2547 11.0671C17.0072 11.1976 16.8047 11.3581 16.6502 11.5456C16.5027 11.726 16.3939 11.9349 16.3307 12.1591C16.2733 12.345 16.2371 12.5367 16.2227 12.7306H20.1047C20.0492 12.1216 19.8377 11.6716 19.5557 11.3566C19.2647 11.0371 18.7877 10.8691 18.2012 10.8691V10.8706Z" fill="#0A639D"/>
</g>
<defs>
<clipPath id="clip0_1_1415">
<rect width="24" height="24" fill="white"/>
</clipPath>
</defs>
</svg>
