<svg width="36" height="11" viewBox="0 0 36 11" fill="none" xmlns="http://www.w3.org/2000/svg">
<path d="M25.1316 5.43384C25.1316 8.43488 27.5644 10.8677 30.5655 10.8677C33.5665 10.8677 35.9993 8.43488 35.9993 5.43384C35.9993 2.4328 33.5665 -2.08905e-05 30.5655 -2.08905e-05C27.5644 -2.08905e-05 25.1316 2.4328 25.1316 5.43384ZM0 5.43384V6.45269H1.52827V5.43384V4.41499H0V5.43384ZM4.58482 5.43384V6.45269H7.64137V5.43384V4.41499H4.58482V5.43384ZM10.6979 5.43384V6.45269H13.7545V5.43384V4.41499H10.6979V5.43384ZM16.811 5.43384V6.45269H19.8676V5.43384V4.41499H16.811V5.43384ZM22.9241 5.43384V6.45269H25.9807V5.43384V4.41499H22.9241V5.43384ZM29.0372 5.43384V6.45269H30.5655V5.43384V4.41499H29.0372V5.43384Z" fill="#EFBDC0"/>
</svg>
