<svg width="22" height="15" viewBox="0 0 22 15" fill="none" xmlns="http://www.w3.org/2000/svg">
<path fill-rule="evenodd" clip-rule="evenodd" d="M17.9291 3.9908e-08C18.3891 -7.49982e-05 18.843 0.10567 19.2557 0.309058C19.6684 0.512445 20.0287 0.808025 20.3089 1.17294L20.4249 1.33593L21.4949 2.94084C21.7818 3.37103 21.9526 3.86809 21.9908 4.38377L21.9988 4.60576V10.9994C21.999 11.504 21.8084 11.9899 21.4654 12.3599C21.1223 12.7299 20.6521 12.9565 20.1489 12.9943L19.9989 12.9993H19.829C19.6274 13.5696 19.2582 14.0656 18.7697 14.4224C18.2813 14.7791 17.6965 14.98 17.0919 14.9986C16.4874 15.0172 15.8913 14.8526 15.3819 14.5266C14.8725 14.2005 14.4735 13.7281 14.2372 13.1713L14.1693 12.9993H7.82859C7.62682 13.5693 7.25759 14.065 6.76928 14.4215C6.28098 14.778 5.69637 14.9787 5.09205 14.9973C4.48774 15.0159 3.89189 14.8515 3.3826 14.5257C2.8733 14.1998 2.4743 13.7278 2.23788 13.1713L2.16989 12.9993H1.99989C1.49534 12.9995 1.00938 12.8089 0.639418 12.4658C0.269456 12.1228 0.0428409 11.6525 0.00499974 11.1494L4.6602e-09 10.9994V2.99984C-4.26195e-05 2.23467 0.29231 1.49841 0.817241 0.941689C1.34217 0.384973 2.06 0.0498899 2.82385 0.00499989L2.99984 3.9908e-08H17.9291ZM16.9991 10.9994C16.7339 10.9994 16.4796 11.1048 16.292 11.2923C16.1045 11.4798 15.9992 11.7342 15.9992 11.9994C15.9992 12.2646 16.1045 12.5189 16.292 12.7064C16.4796 12.894 16.7339 12.9993 16.9991 12.9993C17.2643 12.9993 17.5186 12.894 17.7062 12.7064C17.8937 12.5189 17.999 12.2646 17.999 11.9994C17.999 11.7342 17.8937 11.4798 17.7062 11.2923C17.5186 11.1048 17.2643 10.9994 16.9991 10.9994ZM4.99974 10.9994C4.73453 10.9994 4.48019 11.1048 4.29267 11.2923C4.10514 11.4798 3.99979 11.7342 3.99979 11.9994C3.99979 12.2646 4.10514 12.5189 4.29267 12.7064C4.48019 12.894 4.73453 12.9993 4.99974 12.9993C5.26494 12.9993 5.51928 12.894 5.7068 12.7064C5.89433 12.5189 5.99968 12.2646 5.99968 11.9994C5.99968 11.7342 5.89433 11.4798 5.7068 11.2923C5.51928 11.1048 5.26494 10.9994 4.99974 10.9994ZM15.2672 6.99963H1.99989V10.9994H2.16989C2.37648 10.4139 2.75959 9.90691 3.26643 9.54828C3.77326 9.18966 4.37886 8.99707 4.99974 8.99707C5.62062 8.99707 6.22621 9.18966 6.73304 9.54828C7.23988 9.90691 7.62299 10.4139 7.82959 10.9994H14.1693C14.3758 10.4139 14.759 9.90691 15.2658 9.54828C15.7726 9.18966 16.3782 8.99707 16.9991 8.99707C17.62 8.99707 18.2256 9.18966 18.7324 9.54828C19.2392 9.90691 19.6224 10.4139 19.829 10.9994H19.9989V7.99958H16.9991C16.6481 7.99957 16.3032 7.90716 15.9992 7.73163C15.6952 7.5561 15.4427 7.30364 15.2672 6.99963ZM17.9291 1.99989H16.9991V5.99968H19.9989V4.60576C19.999 4.40823 19.9405 4.21512 19.831 4.05079L18.761 2.44487C18.6697 2.30796 18.5459 2.19572 18.4008 2.11809C18.2557 2.04047 18.0936 1.99987 17.9291 1.99989ZM4.99974 1.99989H2.99984C2.75492 1.99993 2.51853 2.08985 2.3355 2.2526C2.15248 2.41535 2.03555 2.63961 2.00689 2.88285L1.99989 2.99984V4.99974H4.99974V1.99989ZM9.99947 1.99989H6.99963V4.99974H9.99947V1.99989ZM14.9992 1.99989H11.9994V4.99974H14.9992V1.99989Z" fill="#D85F66"/>
</svg>
