<svg width="49" height="48" viewBox="0 0 49 48" fill="none" xmlns="http://www.w3.org/2000/svg">
<path d="M38.5276 17.75C39.4941 17.75 40.2776 16.9665 40.2776 16C40.2776 15.0335 39.4941 14.25 38.5276 14.25V17.75ZM13.7674 10.7957L12.5441 9.54428L12.5441 9.54428L13.7674 10.7957ZM17.8507 9.25141C18.5418 8.5758 18.5544 7.46783 17.8788 6.7767C17.2032 6.08556 16.0952 6.07298 15.4041 6.74859L17.8507 9.25141ZM35.3049 37.2043L36.5282 38.4557L35.3049 37.2043ZM31.2216 38.7486C30.5305 39.4242 30.5179 40.5322 31.1935 41.2233C31.8691 41.9144 32.9771 41.927 33.6682 41.2514L31.2216 38.7486ZM38.9016 32.5013L40.6371 32.7256L38.9016 32.5013ZM10.1387 30.25C9.17218 30.25 8.38867 31.0335 8.38867 32C8.38867 32.9665 9.17218 33.75 10.1387 33.75V30.25ZM38.9127 32.4055L37.1722 32.2241L38.9127 32.4055ZM10.6414 16V17.75H38.5276V16V14.25H10.6414V16ZM13.7674 10.7957L14.9907 12.0471L17.8507 9.25141L16.6274 8L15.4041 6.74859L12.5441 9.54428L13.7674 10.7957ZM13.7674 10.7957L12.5441 9.54428C11.4333 10.6302 10.4923 11.5463 9.82262 12.3688C9.13119 13.2179 8.58203 14.138 8.43517 15.2744L10.1707 15.4987L11.9063 15.723C11.935 15.5007 12.0439 15.184 12.5367 14.5787C13.0513 13.9467 13.8208 13.1907 14.9907 12.0471L13.7674 10.7957ZM35.3049 37.2043L34.0816 35.9529L31.2216 38.7486L32.4449 40L33.6682 41.2514L36.5282 38.4557L35.3049 37.2043ZM35.3049 37.2043L36.5282 38.4557C37.639 37.3698 38.58 36.4537 39.2497 35.6312C39.9411 34.7821 40.4903 33.862 40.6371 32.7256L38.9016 32.5013L37.166 32.277C37.1373 32.4993 37.0284 32.816 36.5356 33.4213C36.021 34.0533 35.2515 34.8093 34.0816 35.9529L35.3049 37.2043ZM38.9127 32.4055L37.1722 32.2241C37.1703 32.2417 37.1683 32.2594 37.166 32.277L38.9016 32.5013L40.6371 32.7256C40.6431 32.6795 40.6485 32.6332 40.6533 32.587L38.9127 32.4055ZM38.5276 32V30.25H10.1387V32V33.75H38.5276V32ZM38.9127 32.4055L40.6533 32.587C40.7969 31.209 39.6634 30.25 38.5276 30.25L38.5276 32L38.5275 33.75C37.8405 33.75 37.075 33.1557 37.1722 32.2241L38.9127 32.4055ZM10.6414 16V14.25C11.2588 14.25 12.0258 14.7984 11.9063 15.723L10.1707 15.4987L8.43517 15.2744C8.24452 16.7496 9.46872 17.75 10.6414 17.75V16Z" fill="#D85F66"/>
</svg>
