<svg width="62" height="62" viewBox="0 0 62 62" fill="none" xmlns="http://www.w3.org/2000/svg">
<path d="M31.0007 7.74992C27.9474 7.74992 24.9241 8.3513 22.1033 9.51972C19.2824 10.6881 16.7194 12.4007 14.5604 14.5597C12.4015 16.7186 10.6889 19.2817 9.52045 22.1025C8.35203 24.9233 7.75065 27.9467 7.75065 30.9999C7.75065 34.0532 8.35203 37.0765 9.52045 39.8973C10.6889 42.7181 12.4015 45.2812 14.5604 47.4401C16.7194 49.5991 19.2824 51.3117 22.1033 52.4801C24.9241 53.6485 27.9474 54.2499 31.0007 54.2499C37.1669 54.2499 43.0807 51.8004 47.4409 47.4401C51.8011 43.0799 54.2506 37.1662 54.2506 30.9999C54.2506 24.8336 51.8011 18.9199 47.4409 14.5597C43.0807 10.1995 37.1669 7.74992 31.0007 7.74992ZM2.58398 30.9999C2.58398 15.3062 15.3069 2.58325 31.0007 2.58325C46.6944 2.58325 59.4173 15.3062 59.4173 30.9999C59.4173 46.6937 46.6944 59.4166 31.0007 59.4166C15.3069 59.4166 2.58398 46.6937 2.58398 30.9999ZM20.6673 21.9583V24.5416C20.6673 24.8842 20.8034 25.2127 21.0456 25.4549C21.2879 25.6972 21.6164 25.8333 21.959 25.8333C22.3016 25.8333 22.6301 25.6972 22.8723 25.4549C23.1146 25.2127 23.2507 24.8842 23.2507 24.5416V21.9583H28.4173V24.5416C28.4173 26.2544 27.7369 27.8971 26.5257 29.1083C25.3145 30.3195 23.6718 30.9999 21.959 30.9999C20.2461 30.9999 18.6034 30.3195 17.3923 29.1083C16.1811 27.8971 15.5007 26.2544 15.5007 24.5416V21.9583H20.6673ZM38.7506 21.9583V24.5416C38.7506 24.8842 38.8867 25.2127 39.129 25.4549C39.3712 25.6972 39.6997 25.8333 40.0423 25.8333C40.3849 25.8333 40.7134 25.6972 40.9557 25.4549C41.1979 25.2127 41.334 24.8842 41.334 24.5416V21.9583H46.5006V24.5416C46.5006 26.2544 45.8202 27.8971 44.609 29.1083C43.3979 30.3195 41.7552 30.9999 40.0423 30.9999C38.3295 30.9999 36.6868 30.3195 35.4756 29.1083C34.2644 27.8971 33.584 26.2544 33.584 24.5416V21.9583H38.7506ZM28.4173 36.1666H33.5943V41.3436H28.4173V36.1666Z" fill="#0A639D"/>
</svg>
