<svg width="62" height="62" viewBox="0 0 62 62" fill="none" xmlns="http://www.w3.org/2000/svg">
<path d="M49.0822 38.7508L23.2489 12.9175M50.9138 19.7633C51.3194 19.3578 52.0195 19.3164 52.4302 19.7633C54.8379 22.3932 56.1735 24.341 56.6127 26.4955C56.8632 27.7355 56.8994 28.9962 56.716 30.2233C56.2252 33.5428 53.5385 36.2295 48.16 41.6054L41.6035 48.1619C36.2302 53.5378 33.5409 56.2271 30.2213 56.7205C28.9942 56.9013 27.7336 56.8652 26.4936 56.6146C24.3391 56.1754 22.3912 54.8424 19.764 52.4322C19.3145 52.0188 19.3558 51.3213 19.764 50.9132C22.027 48.6502 21.9185 44.8733 19.5237 42.476C17.1264 40.0813 13.3496 39.9728 11.0866 42.2358C10.681 42.6439 9.97832 42.6853 9.56757 42.2358C7.15732 39.6085 5.82432 37.6633 5.38516 35.5062C5.13583 34.2789 5.10087 33.0177 5.28182 31.7784C5.77266 28.4588 8.45932 25.7722 13.8378 20.3963L20.3943 13.8398C25.7677 8.46384 28.4569 5.77459 31.7765 5.28118C33.0036 5.10034 34.2642 5.13651 35.5042 5.38709C37.6613 5.82626 39.6066 7.16184 42.2338 9.57209C42.6833 9.98284 42.642 10.6829 42.2338 11.0859C39.9708 13.3515 40.0793 17.1283 42.4767 19.5231C44.8714 21.9204 48.6534 22.0289 50.9138 19.7633Z" stroke="white" stroke-width="3.5" stroke-linecap="round" stroke-linejoin="round"/>
</svg>
