<svg width="62" height="62" viewBox="0 0 62 62" fill="none" xmlns="http://www.w3.org/2000/svg">
<path d="M12.215 41.6872C8.22371 37.6934 6.22679 35.6991 5.48537 33.108C4.74137 30.5169 5.37687 27.7657 6.64787 22.2657L7.37896 19.0934C8.44587 14.4641 8.98062 12.1494 10.5642 10.5632C12.1504 8.97965 14.465 8.4449 19.0944 7.37798L22.2667 6.64432C27.7692 5.3759 30.5179 4.7404 33.109 5.48182C35.7 6.22582 37.6944 8.22273 41.6856 12.214L46.4131 16.9415C53.3649 23.8906 56.8343 27.3626 56.8343 31.6768C56.8343 35.9936 53.3623 39.4656 46.4157 46.4121C39.4665 53.3613 35.9945 56.8333 31.6778 56.8333C27.3636 56.8333 23.889 53.3613 16.9425 46.4147L12.215 41.6872Z" stroke="#0A639D" stroke-width="3.5"/>
<path d="M39.7583 39.7576C41.2696 38.2411 41.4737 35.9936 40.213 34.7304C38.9523 33.4697 36.7022 33.6738 35.1884 35.1876C33.6772 36.7015 31.4271 36.9056 30.1664 35.6449C28.9057 34.3842 29.1098 32.1341 30.6237 30.6229M30.6237 30.6229L29.7092 29.7084M30.6237 30.6229C31.4787 29.7652 32.5689 29.3312 33.5842 29.339M40.6702 40.6695L39.7557 39.755C38.7224 40.7909 37.3403 41.2146 36.1675 40.9717" stroke="#0A639D" stroke-width="3.5" stroke-linecap="round"/>
<path d="M25.8898 26.5909C27.9076 24.5732 27.9076 21.3018 25.8898 19.2841C23.8721 17.2664 20.6008 17.2664 18.5831 19.2841C16.5654 21.3018 16.5654 24.5732 18.5831 26.5909C20.6008 28.6086 23.8721 28.6086 25.8898 26.5909Z" stroke="#0A639D" stroke-width="3.5"/>
</svg>
